<svg width="112" height="54" viewBox="0 0 112 54" fill="none" xmlns="http://www.w3.org/2000/svg">
<path d="M7.73983 52.8753C7.2891 52.9444 6.82659 52.8575 6.3523 52.6145C6.12978 52.4301 5.9967 52.1956 5.95306 51.9109C5.86214 51.3178 5.8752 50.7695 5.99224 50.266C6.54176 46.2483 7.65617 40.2137 9.33546 32.1623L9.56062 30.7802L8.92271 31.1329C8.34228 31.4647 7.88601 31.6561 7.55389 31.707C7.12688 31.7725 6.71909 31.7257 6.33051 31.5668C6.04047 31.417 5.87362 31.1998 5.82998 30.9151C5.79725 30.7016 5.83932 30.5009 5.9562 30.313C6.19359 29.961 6.50302 29.6829 6.88449 29.4787L6.9502 29.4322C7.7734 28.9418 8.61572 28.497 9.47718 28.0979C10.0649 27.8135 10.42 27.3584 10.5426 26.7326C11.693 21.7245 12.7158 18.0227 13.6112 15.6274C14.079 14.2445 14.823 13.4749 15.8431 13.3185C16.1752 13.2676 16.5045 13.2778 16.8311 13.3491C17.7835 13.5431 18.3835 14.1309 18.6312 15.1127L18.6475 15.2195C18.7313 15.4494 18.7896 15.6712 18.8223 15.8847C18.9751 16.881 18.5058 17.4629 17.4146 17.6302L17.0588 17.6847C16.7741 17.7284 16.5524 17.7866 16.3936 17.8595C16.2549 17.9051 16.1426 18.0437 16.0567 18.2754C15.3255 20.7912 14.6727 23.3436 14.0984 25.9326C14.4086 26.055 14.706 26.0944 14.9906 26.0507L15.6312 25.9525C16.2479 25.858 16.8492 25.8993 17.4348 26.0766C17.7248 26.2264 17.8899 26.4318 17.9299 26.6927C17.9662 26.93 17.8703 27.1753 17.6421 27.4288C17.2953 27.7005 16.8864 27.8846 16.4156 27.9811L14.4146 28.47C13.7029 28.5791 13.2949 29.0058 13.1905 29.7502C13.1685 29.9236 13.1328 30.0869 13.0835 30.2401C11.8762 35.9854 10.771 41.7636 9.76802 47.5747C9.47177 48.8099 9.32332 50.0588 9.32265 51.3215C9.31331 51.7357 9.14709 52.0768 8.82398 52.3449C8.52823 52.633 8.16685 52.8098 7.73983 52.8753ZM25.9012 40.2938C25.7352 40.3193 25.6147 40.3256 25.5399 40.3128C24.6914 40.3215 24.1579 39.9298 23.9394 39.1378L23.7157 37.6788C23.692 37.6825 23.6546 37.6761 23.6035 37.6596C23.5524 37.6432 23.5032 37.6386 23.4557 37.6459C23.3134 37.6677 23.1938 37.7588 23.097 37.9194C23.0203 38.0525 22.94 38.162 22.856 38.2477C22.3173 39.0101 21.6774 39.6667 20.9363 40.2173C20.3978 40.6641 19.7845 40.9402 19.0966 41.0457C18.7407 41.1002 18.3621 41.0854 17.9607 41.0013C17.0904 40.8676 16.588 40.3619 16.4534 39.4842C16.3989 39.1283 16.3717 38.7926 16.3718 38.4769C16.6509 35.2291 17.3843 32.0938 18.5719 29.0709C18.9135 28.2901 19.4402 27.8452 20.1519 27.7361C20.484 27.6851 20.8151 27.7072 21.1454 27.8023C21.6252 27.923 21.896 28.1849 21.9578 28.5882C21.9797 28.7306 21.9677 28.8902 21.922 29.0672L20.9652 32.0911C20.4681 33.5999 20.1306 35.2784 19.9526 37.1267C20.5313 36.6252 20.9439 36.1492 21.1905 35.6986L21.3055 35.4989C23.0897 32.7245 24.7425 29.8852 26.264 26.9811L27.4941 24.7894C27.8832 24.0013 28.4692 23.5473 29.252 23.4273C29.679 23.3618 30.1142 23.4287 30.5575 23.6278C30.8202 23.7575 30.9733 23.9647 31.017 24.2493C31.0533 24.4866 30.8952 24.96 30.5427 25.6696C29.2273 28.8092 28.2065 32.0493 27.4803 35.3899C27.2279 36.5941 27.1562 37.552 27.2653 38.2637L27.3937 38.8632C27.4809 39.4325 27.2371 39.822 26.6623 40.0315C26.4396 40.1627 26.1859 40.2502 25.9012 40.2938ZM32.7034 40.5986C32.395 40.6459 32.0638 40.6238 31.7099 40.5324C31.1352 40.4262 30.8042 40.0885 30.7169 39.5191C30.6551 39.1159 30.6498 38.7646 30.701 38.4654L30.6984 38.2108C31.2373 33.4907 32.0144 28.819 33.0295 24.1957C33.068 23.9713 33.1201 23.7569 33.1859 23.5526C33.4819 22.6331 34.0214 22.1134 34.8043 21.9934C35.0178 21.9606 35.2486 21.9617 35.4967 21.9965C36.1627 22.0643 36.5339 22.3473 36.6103 22.8455C36.6539 23.1302 36.459 24.1556 36.0257 25.9216L35.4933 28.6255C35.6119 28.6074 35.7104 28.6165 35.7888 28.6531L36.6215 27.4328C37.4542 26.2125 38.4018 25.1082 39.4643 24.1197C39.9554 23.6802 40.4975 23.415 41.0905 23.3241C41.3752 23.2805 41.6535 23.2742 41.9253 23.3054C42.6661 23.3861 43.0801 23.7111 43.1674 24.2804C43.2111 24.5651 43.1332 25.0869 42.934 25.8459L41.9354 30.2602C41.5513 31.873 41.3306 33.5215 41.2731 35.2057C41.269 36.1289 40.8162 36.6597 39.9147 36.7979C38.7049 36.9834 38.0363 36.661 37.909 35.8307C37.842 34.9183 37.889 34.037 38.05 33.1868C38.1343 32.4697 38.2323 31.7627 38.344 31.0657C38.2929 31.0493 38.2317 31.0465 38.1606 31.0574C38.042 31.0756 37.9644 31.1239 37.9279 31.2024C37.8877 31.2571 37.8493 31.3237 37.8128 31.4021C37.8 31.4769 37.7835 31.528 37.7634 31.5554C36.8063 33.5474 35.9175 35.5897 35.0971 37.6822C34.9198 38.2678 34.6777 38.8269 34.3709 39.3596C33.9709 40.0765 33.4151 40.4895 32.7034 40.5986Z" fill="black"/>
<path d="M47.0426 34.3217L54.1146 13.5537H58.8506L65.6346 34.3217H61.6666L60.2266 29.8417H52.5146L51.0426 34.3217H47.0426ZM53.4746 26.9937H59.3306L56.4186 18.0657L53.4746 26.9937ZM69.2499 34.3217V13.5537H76.5779C78.9139 13.5537 80.7325 14.1297 82.0339 15.2817C83.3459 16.4337 84.0019 18.0657 84.0019 20.1777C84.0019 22.2683 83.3459 23.8897 82.0339 25.0417C80.7325 26.1937 78.9139 26.7697 76.5779 26.7697H73.0579V34.3217H69.2499ZM73.0579 23.4737H76.5779C77.7512 23.4737 78.6365 23.1643 79.2339 22.5457C79.8312 21.927 80.1299 21.1377 80.1299 20.1777C80.1299 19.1963 79.8312 18.391 79.2339 17.7617C78.6365 17.1323 77.7512 16.8177 76.5779 16.8177H73.0579V23.4737ZM87.9084 34.3217V13.5537H91.6844V34.3217H87.9084Z" fill="#242424"/>
</svg>
